<svg width="380" height="502" viewBox="0 0 380 502" fill="none" xmlns="http://www.w3.org/2000/svg">
<path d="M13.8232 502L379.86 213.114L379.86 388.982L236.443 502L13.8232 502Z" fill="#FF699C" fill-opacity="0.8"/>
<path d="M236.443 502L379.86 388.982L379.86 502L236.443 502Z" fill="#01AF32" fill-opacity="0.8"/>
<path d="M0.140625 337.369L379.86 38.0125L379.86 213.114L13.8232 502L0.140625 502L0.140625 337.369Z" fill="#EBA801" fill-opacity="0.8"/>
<path d="M0.140625 161.674L205.186 2.7775e-08L379.86 5.1436e-08L379.86 38.0125L0.140625 337.369L0.140625 161.674Z" fill="#2F1F39" fill-opacity="0.8"/>
<path d="M0.140625 0L205.186 2.7775e-08L0.140625 161.674L0.140625 0Z" fill="#06C1E6" fill-opacity="0.8"/>
<path d="M357.767 18.5354L22.2334 18.5354C19.183 18.5354 16.7102 21.3016 16.7102 24.7138L16.7102 477.286C16.7102 480.698 19.183 483.465 22.2334 483.465L357.767 483.465C360.818 483.465 363.291 480.698 363.291 477.286L363.291 24.7138C363.291 21.3016 360.818 18.5354 357.767 18.5354Z" fill="white"/>
</svg>
